<?xml version="1.0" encoding="utf-8"?>
<!-- Generator: Adobe Illustrator 24.2.3, SVG Export Plug-In . SVG Version: 6.00 Build 0)  -->
<svg version="1.1" id="Layer_1" xmlns="http://www.w3.org/2000/svg" xmlns:xlink="http://www.w3.org/1999/xlink" x="0px" y="0px"
	 viewBox="0 0 128 125" style="enable-background:new 0 0 128 125;" xml:space="preserve">
<style type="text/css">
	.st0{fill:#003250;}
	.st1{fill:#63B3F8;}
	.st2{fill:#FBFCFC;}
	.st3{fill:#FBC79F;}
</style>
<desc>Created with Sketch.</desc>
<g>
	<path class="st0" d="M127,61.4c0,0.7,0,1.5,0,2.2c0,0.1,0,0.2,0.1,0.2v0.8c-0.1,0.1-0.1,0.2-0.1,0.3c-0.2,3.4-0.5,6.8-1.2,10.1
		c-2.3,10.9-7.1,20.6-14.5,29c-4.5,5.1-9.8,9.4-15.7,12.8c-6,3.4-12.4,5.8-19.1,7.1c-3.3,0.6-6.6,1-9.9,1.1h-4
		c-3.5-0.1-6.9-0.5-10.3-1.2c-11.1-2.3-20.9-7.1-29.3-14.7c-6.2-5.5-11-11.9-14.6-19.3c-2.9-5.9-4.8-12.2-5.7-18.7
		c-0.3-2.3-0.5-4.6-0.6-6.8c0-1.2,0-2.3,0-3.5c0.1-3.5,0.5-6.9,1.2-10.4c2.2-11.1,7.1-21,14.6-29.5c5.2-5.8,11.2-10.5,18.1-14
		C44.3,2.6,53.2,0.3,62.7,0c1.2,0,2.4,0,3.6,0c4.4,0.1,8.8,0.7,13,1.8c16.5,4.2,29.3,13.4,38.3,27.8c5.9,9.3,8.9,19.5,9.3,30.5
		c0,0.1-0.1,0.2,0.1,0.3v0.7C126.9,61.2,127,61.3,127,61.4z"/>
	<path class="st1" d="M27,47.4c0-1.1,0-2.2,0-3.2c0.1-2.7,2.7-4.6,5.2-3.9c0.7,0.2,1.4,0.6,1.9,1.1c0.2,0.2,0.3,0.2,0.4,0
		c0.2-0.2,0.4-0.4,0.7-0.5c2.6-1.8,5.9-0.3,6.4,2.8c0.1,0.4,0.1,0.8,0.1,1.2c0,1.9,0,3.9,0,5.8c0,0.3-0.1,0.4-0.4,0.4
		c-1.1,0-2.2,0-3.3,0c-0.3,0-0.3-0.1-0.3-0.3c0-1.8,0-3.6,0-5.4c0-0.3,0-0.5-0.1-0.8c-0.1-0.3-0.2-0.4-0.5-0.5
		c-0.3,0-0.5,0.1-0.6,0.4c-0.1,0.3-0.1,0.6-0.1,0.9c0,1.8,0,3.6,0,5.3c0,0.3-0.1,0.4-0.4,0.4c-1.1,0-2.2,0-3.3,0
		c-0.3,0-0.4-0.1-0.4-0.4c0-1.8,0-3.6,0-5.4c0-0.3,0-0.5-0.1-0.8c-0.1-0.3-0.2-0.4-0.5-0.4c-0.3,0-0.5,0.1-0.6,0.4
		C31,44.8,31,45.1,31,45.4c0,1.8,0,3.6,0,5.3c0,0.3,0,0.4-0.4,0.4c-1.1,0-2.2,0-3.3,0c-0.3,0-0.4-0.1-0.4-0.4
		C27,49.6,27,48.5,27,47.4C27,47.4,27,47.4,27,47.4z"/>
	<path class="st1" d="M54.7,48.1c0,0.9,0,1.8,0,2.7c0,0.2,0,0.3-0.3,0.3c-1.1,0-2.3,0-3.4,0c-0.2,0-0.3-0.1-0.3-0.3
		c0-1.5,0-3.1,0-4.6c0-0.3,0-0.6-0.1-0.9c-0.3-0.8-1-1.2-1.8-1c-0.8,0.2-1.3,1-1.1,1.9c0.2,0.8,0.9,1.3,1.7,1.2c0.1,0,0.2,0,0.3-0.1
		c0.4-0.1,0.4-0.1,0.4,0.3c0,1.1,0,2.2,0,3.3c0,0.3-0.1,0.4-0.3,0.4c-3.4,0.4-6.5-2.2-6.2-6c0.3-3.3,3.1-5.5,6.5-5.1
		c2.9,0.4,4.7,2.3,4.7,5.4C54.7,46.4,54.7,47.2,54.7,48.1C54.7,48.1,54.7,48.1,54.7,48.1z"/>
	<path class="st1" d="M68.7,36.4c1.7,0,3.4,0,5.1,0c0.3,0,0.4,0,0.4,0.4c0,1.2,0,2.4,0,3.5c0,0.3-0.1,0.3-0.3,0.3
		c-0.9,0-1.7,0-2.6,0c-0.3,0-0.4,0.1-0.4,0.4c0,3.2,0,6.5,0,9.7c0,0.3-0.1,0.4-0.4,0.4c-1.2,0-2.4,0-3.6,0c-0.3,0-0.4-0.1-0.4-0.4
		c0-3.2,0-6.5,0-9.7c0-0.3-0.1-0.4-0.4-0.4c-0.9,0-1.7,0-2.6,0c-0.3,0-0.4-0.1-0.4-0.4c0-1.2,0-2.4,0-3.5c0-0.3,0.1-0.3,0.4-0.3
		C65.2,36.4,66.9,36.4,68.7,36.4z"/>
	<path class="st1" d="M17.4,46.8c0.2,0.1,0.4,0.2,0.6,0.3c0.5,0.2,1,0.1,1.5-0.2c0.4-0.3,0.5-0.7,0.3-1.2c-0.2-0.4-0.4-0.8-0.6-1.2
		c-0.7-1.4-1.1-2.9-0.7-4.4c0.6-2.8,3.7-4.5,6.4-3.7c0.2,0.1,0.3,0.2,0.3,0.4c0,1.2,0,2.4,0,3.6c0,0.2-0.1,0.3-0.3,0.2
		c-0.5-0.2-1-0.1-1.4,0.3c-0.4,0.4-0.4,0.9-0.2,1.4c0.2,0.4,0.4,0.8,0.7,1.2c0.8,1.4,1.1,2.9,0.6,4.5c-0.9,2.8-4.2,4.3-6.9,3.1
		c-0.2-0.1-0.2-0.1-0.2-0.3c0-1.3,0-2.6,0-3.9C17.4,46.8,17.4,46.8,17.4,46.8z"/>
	<path class="st1" d="M62.9,44.5c-0.1,0.1-0.2,0-0.3-0.1c-0.7-0.3-1.3,0-1.5,0.8c-0.1,0.3-0.1,0.6-0.1,0.9c0,1.5,0,3.1,0,4.6
		c0,0.3-0.1,0.4-0.4,0.4c-1.1,0-2.2,0-3.3,0c-0.3,0-0.4,0-0.4-0.3c0-1.9,0-3.8,0-5.7c0-1.4,0.4-2.7,1.4-3.7c1.2-1.2,2.7-1.4,4.3-1.1
		c0.1,0,0.2,0.1,0.2,0.2C62.9,41.8,62.9,43.1,62.9,44.5z"/>
	<g>
		<path class="st2" d="M94.1,98.6c1.1,0,2.1,1,2.1,2.1c0,1.2-1,2.1-2.1,2.1c-1.1,0-2-1-2-2.1C92,99.5,93,98.6,94.1,98.6z"/>
		<path class="st2" d="M96,93.8c0,1.1-0.9,2-2,2c-1.1,0-2-0.9-2-2c0-1.1,0.9-2,2-2C95.1,91.8,96,92.7,96,93.8z"/>
		<path class="st2" d="M89.1,100.7c0,1.1-0.9,2-2,2c-1.1,0-2-0.9-2-2c0-1.1,0.9-2,2-2C88.2,98.8,89.1,99.6,89.1,100.7z"/>
		<path class="st2" d="M85.1,93.9c0-1.1,0.9-1.9,1.9-1.9c1.1,0,1.9,0.9,1.9,1.9c0,1.1-0.9,1.9-1.9,1.9
			C85.9,95.8,85.1,94.9,85.1,93.9z"/>
		<path class="st2" d="M80,102.7c-1,0-1.9-0.9-1.9-1.9c0-1,0.9-1.9,1.9-1.9c1.1,0,1.9,0.9,1.9,1.9C81.9,101.9,81.1,102.7,80,102.7z"
			/>
		<path class="st2" d="M95.8,86.9c0,1.1-0.9,1.9-1.9,1.9c-1.1,0-1.9-0.9-1.9-1.9c0-1,0.9-1.9,1.9-1.9C95,85,95.8,85.9,95.8,86.9z"/>
		<path class="st2" d="M81.8,94c0,1-0.8,1.8-1.8,1.8c-1,0-1.8-0.8-1.8-1.8c0-1,0.9-1.8,1.9-1.8C81,92.2,81.8,93,81.8,94z"/>
		<path class="st2" d="M95.7,80.1c0,1-0.8,1.8-1.8,1.8c-1,0-1.8-0.8-1.8-1.8c0-1,0.8-1.8,1.8-1.8C94.8,78.3,95.7,79.1,95.7,80.1z"/>
		<path class="st2" d="M73,102.7c-1,0-1.8-0.8-1.8-1.8c0-1,0.8-1.8,1.8-1.8c1,0,1.8,0.8,1.8,1.8C74.8,101.9,74,102.7,73,102.7z"/>
		<path class="st2" d="M86.9,88.8c-1,0-1.8-0.8-1.8-1.9c0-1,0.8-1.8,1.9-1.8c1,0,1.8,0.9,1.8,1.9C88.7,88.1,87.9,88.9,86.9,88.8z"/>
		<path class="st2" d="M79.8,88.8c-1,0-1.7-0.8-1.7-1.7c0-1,0.8-1.7,1.8-1.7c0.9,0,1.7,0.8,1.7,1.7C81.6,88.1,80.8,88.9,79.8,88.8z"
			/>
		<path class="st2" d="M66,102.7c-0.9,0-1.7-0.8-1.7-1.7c0-0.9,0.8-1.7,1.8-1.7c0.9,0,1.7,0.8,1.7,1.7C67.7,102,66.9,102.7,66,102.7
			z"/>
		<path class="st2" d="M93.8,74.9c-1,0-1.7-0.8-1.7-1.7c0-1,0.8-1.8,1.8-1.8c0.9,0,1.7,0.8,1.7,1.7C95.5,74.2,94.7,74.9,93.8,74.9z"
			/>
		<path class="st2" d="M74.7,94.1c0,1-0.8,1.7-1.7,1.7c-1,0-1.8-0.8-1.7-1.7c0-1,0.8-1.7,1.7-1.7C73.9,92.3,74.7,93.1,74.7,94.1z"/>
		<path class="st2" d="M88.5,80.2c0,1-0.8,1.7-1.7,1.7c-1,0-1.8-0.8-1.8-1.7c0-1,0.8-1.7,1.7-1.7C87.8,78.4,88.5,79.2,88.5,80.2z"/>
		<path class="st2" d="M67.5,94.1c0,0.9-0.7,1.7-1.6,1.7c-0.9,0-1.6-0.7-1.7-1.6c0-0.9,0.7-1.7,1.6-1.7
			C66.8,92.5,67.5,93.2,67.5,94.1z"/>
		<path class="st2" d="M81.4,80.2c0,0.9-0.7,1.7-1.6,1.7c-0.9,0-1.7-0.7-1.7-1.7c0-0.9,0.7-1.6,1.6-1.6
			C80.7,78.6,81.4,79.3,81.4,80.2z"/>
		<path class="st2" d="M86.7,74.9c-0.9,0-1.6-0.7-1.7-1.6c0-0.9,0.7-1.7,1.6-1.7c0.9,0,1.7,0.7,1.7,1.7
			C88.4,74.2,87.6,74.9,86.7,74.9z"/>
		<path class="st2" d="M72.8,88.8c-0.9,0-1.6-0.7-1.7-1.6c0-0.9,0.7-1.7,1.6-1.7c0.9,0,1.7,0.7,1.7,1.7
			C74.5,88.1,73.7,88.8,72.8,88.8z"/>
		<path class="st2" d="M58.9,102.7c-0.9,0-1.6-0.7-1.7-1.6c0-0.9,0.7-1.7,1.6-1.7c0.9,0,1.7,0.8,1.7,1.7
			C60.6,102,59.8,102.7,58.9,102.7z"/>
		<path class="st2" d="M60.4,94.2c0,0.9-0.7,1.6-1.5,1.6c-0.9,0-1.6-0.7-1.6-1.6c0-0.9,0.7-1.6,1.6-1.6
			C59.7,92.7,60.4,93.4,60.4,94.2z"/>
		<path class="st2" d="M74.3,80.3c0,0.9-0.7,1.6-1.6,1.6c-0.9,0-1.6-0.7-1.6-1.6c0-0.9,0.7-1.6,1.6-1.6
			C73.6,78.8,74.3,79.5,74.3,80.3z"/>
		<path class="st2" d="M65.8,88.8c-0.9,0-1.6-0.7-1.6-1.6c0-0.8,0.7-1.6,1.6-1.6c0.9,0,1.6,0.7,1.6,1.6
			C67.4,88.1,66.7,88.8,65.8,88.8z"/>
		<path class="st2" d="M51.9,102.7c-0.9,0-1.6-0.7-1.6-1.5c0-0.9,0.7-1.6,1.5-1.6c0.9,0,1.6,0.7,1.6,1.5
			C53.5,102,52.8,102.7,51.9,102.7z"/>
		<path class="st2" d="M51.8,92.8c0.8,0,1.5,0.7,1.5,1.5c0,0.8-0.7,1.5-1.5,1.5c-0.8,0-1.5-0.7-1.5-1.5C50.4,93.5,51,92.8,51.8,92.8
			z"/>
		<path class="st2" d="M58.8,88.8c-0.8,0-1.5-0.7-1.5-1.5c0-0.8,0.7-1.5,1.5-1.5c0.8,0,1.5,0.7,1.5,1.5
			C60.2,88.2,59.6,88.8,58.8,88.8z"/>
		<path class="st2" d="M44.9,102.7c-0.8,0-1.5-0.7-1.5-1.5c0-0.8,0.7-1.5,1.5-1.5c0.8,0,1.5,0.7,1.5,1.5
			C46.3,102.1,45.7,102.7,44.9,102.7z"/>
		<path class="st2" d="M44.8,95.8c-0.8,0-1.4-0.6-1.4-1.4c0-0.8,0.6-1.4,1.4-1.4c0.8,0,1.4,0.6,1.4,1.4
			C46.2,95.2,45.5,95.8,44.8,95.8z"/>
		<path class="st2" d="M39.2,101.4c0,0.8-0.6,1.4-1.4,1.4c-0.8,0-1.4-0.6-1.4-1.4c0-0.8,0.6-1.4,1.4-1.4
			C38.6,100,39.2,100.6,39.2,101.4z"/>
		<path class="st2" d="M30.8,102.7c-0.7,0-1.3-0.6-1.3-1.3c0-0.7,0.6-1.3,1.3-1.3c0.7,0,1.3,0.6,1.3,1.3
			C32.1,102.2,31.5,102.7,30.8,102.7z"/>
	</g>
	<path class="st3" d="M109.7,46.3c-0.2,2.7-2.5,4.9-5.2,5c-2.9,0.1-5.4-1.8-5.8-4.6c-0.4-2.8,1-5.3,3.5-6.2c2.5-0.9,5.4,0,6.7,2.3
		c0.3,0.5,0.5,1,0.7,1.6c0.1,0.3,0,0.3-0.2,0.3c-0.6,0-1.2,0-1.8,0v0.1c-0.4,0-0.7,0-1.1,0.1c-0.5,0-0.9,0-1.3-0.4
		c-0.5-0.5-1.5-0.4-2,0.1c-0.5,0.5-0.6,1.4-0.3,2c0.4,0.6,1.2,1,1.9,0.7c0.5-0.2,0.7-0.5,0.9-0.9c0.1-0.2,0.2-0.2,0.4-0.2
		c1.2,0,2.3-0.1,3.5-0.1C109.6,46,109.7,46.1,109.7,46.3z"/>
	<path class="st3" d="M85.5,36.7c0,1.2,0,2.5,0,3.7c0,0.2-0.1,0.3-0.2,0.2c-1,0-2,0-3,0c-0.1,0.1,0,0.3,0,0.4c0,3.2,0,6.5,0,9.7
		c0,0.3-0.1,0.4-0.4,0.4c-1.2,0-2.4,0-3.6,0c-0.3,0-0.4-0.1-0.4-0.4c0-3.2,0-6.4,0-9.7c0-0.1,0-0.3,0-0.4c-1,0-2.1,0-3.1,0
		c-0.1,0-0.2,0-0.2-0.2c0-1.3,0-2.6,0-3.9c0-0.1,0-0.1,0.1-0.1c2.2,0,4.4,0,6.5,0c1.4,0,2.7,0,4.1,0C85.4,36.4,85.5,36.4,85.5,36.7z
		"/>
	<path class="st3" d="M97.4,46.1c0,0.2,0,0.3-0.3,0.3c-1.9,0-3.7,0-5.6,0c-0.4,0-0.3-0.3-0.4-0.6c0-0.1,0-0.2,0-0.3
		c0-1,0.1-1.1,1.1-1.1c0.3,0,0.6,0,0.9,0c0.2,0,0.3,0,0.2-0.3c-0.3-0.9-1.4-1.2-2.2-0.7c-0.2,0.1-0.3,0.3-0.4,0.5
		c-0.6,0.8-0.5,2.4,0,3.2c0.5,0.8,1.4,0.9,2.2,0.3c0.2-0.2,0.3-0.2,0.4,0c0.6,0.8,1.3,1.6,1.9,2.3c0.1,0.2,0.1,0.3,0,0.4
		c-2,1.3-4,1.5-6.1,0.4c-2.1-1.1-3-3-2.9-5.3c0.2-2.6,2.1-4.7,4.6-5.1c2.7-0.5,5.2,0.8,6.2,3.2C97.4,44.2,97.5,45.2,97.4,46.1z"/>
</g>
</svg>
