<?xml version="1.0" encoding="utf-8"?>
<!-- Generator: Adobe Illustrator 24.2.3, SVG Export Plug-In . SVG Version: 6.00 Build 0)  -->
<svg version="1.1" id="Layer_1" xmlns="http://www.w3.org/2000/svg" xmlns:xlink="http://www.w3.org/1999/xlink" x="0px" y="0px"
	 viewBox="0 0 80 80" style="enable-background:new 0 0 80 80;" xml:space="preserve">
<style type="text/css">
	.st0{fill:#FFFFFF;}
</style>
<path class="st0" d="M80,39.2v-0.5c-0.1-0.1,0-0.1,0-0.2c-0.3-7-2.2-13.6-6-19.5C68.2,9.7,60,3.8,49.5,1.1c-2.7-0.7-5.5-1-8.3-1.1
	c-0.8,0-1.5,0-2.3,0c-6.1,0.2-11.8,1.7-17.2,4.4c-4.4,2.3-8.3,5.3-11.6,9c-4.8,5.4-7.9,11.7-9.4,18.9c-0.4,2.2-0.7,4.4-0.8,6.6
	c0,0.7,0,1.5,0,2.2C0,42.6,0.1,44,0.4,45.5c0.6,4.2,1.8,8.2,3.6,12c2.3,4.7,5.4,8.9,9.4,12.4c5.4,4.8,11.7,7.9,18.8,9.4
	c2.2,0.4,4.4,0.7,6.6,0.8h2.6c2.1-0.1,4.2-0.3,6.3-0.7c4.3-0.8,8.4-2.4,12.2-4.5c3.8-2.2,7.2-4.9,10.1-8.2
	c4.7-5.4,7.8-11.5,9.3-18.6c0.4-2.1,0.7-4.3,0.8-6.5c0-0.1,0-0.1,0.1-0.2v-0.5c-0.1,0,0-0.1,0-0.1c0-0.5,0-0.9,0-1.4
	C80,39.3,80,39.2,80,39.2z M54.3,56.9c-0.6,0-1.2-0.5-1.1-1.2c0-0.6,0.5-1.2,1.2-1.1c0.6,0,1.2,0.5,1.1,1.2
	C55.5,56.4,55,56.9,54.3,56.9z M55.6,60.1c0,0.7-0.6,1.2-1.2,1.2c-0.7,0-1.2-0.5-1.2-1.2c0-0.7,0.5-1.2,1.2-1.2
	C55.1,58.9,55.6,59.4,55.6,60.1z M54.3,52.4c-0.6,0-1.1-0.5-1.1-1.1c0-0.6,0.5-1.1,1.1-1.1c0.6,0,1.1,0.5,1.1,1.1
	C55.4,51.9,54.9,52.4,54.3,52.4z M54.2,48c-0.6,0-1.1-0.5-1.1-1c0-0.6,0.5-1.1,1.1-1.1c0.6,0,1.1,0.5,1.1,1.1
	C55.3,47.5,54.8,48,54.2,48z M45.3,56.9c-0.6,0-1.1-0.5-1.1-1c0-0.6,0.5-1.1,1-1.1c0.6,0,1.1,0.5,1.1,1.1
	C46.4,56.4,45.9,56.9,45.3,56.9z M46.5,60.2c0,0.6-0.5,1.1-1.1,1.1c-0.6,0-1.1-0.5-1.1-1.1c0-0.6,0.5-1.1,1.1-1.1
	C46,59.1,46.5,59.6,46.5,60.2z M45.3,52.4c-0.5,0-1-0.4-1-1c0-0.5,0.4-1,1-1c0.5,0,1,0.4,1,1C46.3,52,45.8,52.4,45.3,52.4z
	 M14.6,25.9c-0.3-0.1-0.6-0.1-0.9,0.2c-0.2,0.3-0.3,0.6-0.1,0.9c0.1,0.3,0.3,0.5,0.4,0.8c0.5,0.9,0.7,1.9,0.4,2.9
	c-0.6,1.8-2.7,2.7-4.4,2c-0.1,0-0.2-0.1-0.2-0.2c0-0.8,0-1.6,0-2.5c0,0,0,0,0-0.1c0.1,0.1,0.2,0.1,0.4,0.2c0.3,0.1,0.6,0.1,0.9-0.1
	c0.3-0.2,0.3-0.5,0.2-0.8c-0.1-0.3-0.3-0.5-0.4-0.8c-0.5-0.9-0.7-1.8-0.5-2.8c0.4-1.8,2.3-2.9,4.1-2.3c0.1,0,0.2,0.1,0.2,0.2
	c0,0.8,0,1.6,0,2.3C14.8,25.9,14.7,25.9,14.6,25.9z M18.4,65.8c-0.5,0-0.8-0.4-0.8-0.8c0-0.5,0.4-0.8,0.9-0.8c0.5,0,0.8,0.4,0.8,0.8
	C19.3,65.4,18.9,65.8,18.4,65.8z M22.9,65.8c-0.5,0-0.9-0.4-0.9-0.9c0-0.5,0.4-0.9,0.9-0.9c0.5,0,0.9,0.4,0.9,0.9
	C23.8,65.4,23.4,65.7,22.9,65.8z M25.2,32.7c-0.7,0-1.4,0-2.1,0c-0.2,0-0.2,0-0.2-0.2c0-1.2,0-2.3,0-3.5c0-0.2,0-0.3,0-0.5
	c0-0.2-0.1-0.3-0.3-0.3c-0.2,0-0.3,0.1-0.4,0.2C22,28.7,22,28.8,22,29c0,1.1,0,2.3,0,3.4c0,0.2,0,0.3-0.2,0.3c-0.7,0-1.4,0-2.1,0
	c-0.2,0-0.2-0.1-0.2-0.2c0-1.1,0-2.3,0-3.4c0-0.2,0-0.3,0-0.5c0-0.2-0.1-0.3-0.3-0.3c-0.2,0-0.3,0.1-0.4,0.2
	c-0.1,0.2-0.1,0.4-0.1,0.6c0,1.1,0,2.3,0,3.4c0,0.2,0,0.3-0.3,0.3c-0.7,0-1.4,0-2.1,0c-0.2,0-0.2,0-0.2-0.2c0-0.7,0-1.4,0-2.1h0
	c0-0.7,0-1.4,0-2.1c0.1-1.7,1.7-2.9,3.4-2.5c0.5,0.1,0.9,0.4,1.2,0.7c0.1,0.1,0.2,0.1,0.3,0c0.1-0.1,0.3-0.2,0.4-0.4
	C23,25,25.1,26,25.4,28c0,0.2,0.1,0.5,0.1,0.7c0,1.2,0,2.5,0,3.7C25.4,32.7,25.4,32.7,25.2,32.7z M27.4,65.8c-0.5,0-0.9-0.4-0.9-0.9
	c0-0.5,0.4-0.9,0.9-0.9c0.5,0,1,0.4,1,1C28.4,65.3,28,65.8,27.4,65.8z M26.5,60.4c0-0.5,0.4-0.9,0.9-0.9c0.5,0,0.9,0.4,0.9,0.9
	c0,0.5-0.4,0.9-0.9,0.9C26.9,61.3,26.5,60.9,26.5,60.4z M32,65.8c-0.6,0-1-0.4-1-1c0-0.5,0.4-1,1-1c0.6,0,1,0.4,1,1
	C32.9,65.3,32.5,65.7,32,65.8z M30.9,60.4c0-0.5,0.4-0.9,0.9-0.9c0.5,0,0.9,0.4,0.9,0.9c0,0.5-0.4,0.9-0.9,0.9
	C31.4,61.3,30.9,60.9,30.9,60.4z M33.5,32.7c-0.7,0-1.5,0-2.2,0c-0.2,0-0.2,0-0.2-0.2c0-1,0-2,0-2.9c0-0.2,0-0.4-0.1-0.6
	c-0.2-0.5-0.6-0.8-1.2-0.7c-0.5,0.1-0.8,0.7-0.7,1.2c0.1,0.5,0.6,0.8,1.1,0.7c0.1,0,0.1,0,0.2,0c0.3-0.1,0.3-0.1,0.3,0.2
	c0,0.7,0,1.4,0,2.1c0,0.2,0,0.2-0.2,0.2c-2.2,0.2-4.2-1.4-4-3.9c0.2-2.1,2-3.5,4.1-3.2c1.9,0.2,3,1.5,3,3.4c0,0.5,0,1.1,0,1.6h0
	c0,0.6,0,1.1,0,1.7C33.7,32.6,33.7,32.7,33.5,32.7z M36.4,65.8c-0.6,0-1.1-0.5-1.1-1c0-0.6,0.5-1.1,1.1-1.1c0.6,0,1.1,0.5,1.1,1.1
	C37.5,65.3,37,65.7,36.4,65.8z M36.4,59.3c0.5,0,1,0.4,1,1c0,0.6-0.4,1-1,1c-0.5,0-1-0.4-1-1C35.4,59.8,35.8,59.3,36.4,59.3z
	 M35.4,55.9c0-0.5,0.4-1,1-1c0.5,0,0.9,0.4,0.9,1c0,0.5-0.4,0.9-0.9,0.9S35.4,56.4,35.4,55.9z M39,28.5c-0.1,0-0.1,0-0.2,0
	c-0.5-0.2-0.8,0-0.9,0.5c0,0.2-0.1,0.4-0.1,0.6c0,1,0,2,0,3c0,0.2-0.1,0.2-0.2,0.2c-0.7,0-1.4,0-2.1,0c-0.2,0-0.2,0-0.2-0.2
	c0-1.2,0-2.4,0-3.6c0-0.9,0.2-1.7,0.9-2.4c0.8-0.7,1.7-0.9,2.7-0.7c0.1,0,0.1,0.1,0.1,0.1C39,26.7,39,27.6,39,28.5z M40.9,65.8
	c-0.6,0-1.1-0.5-1.1-1.1c0-0.6,0.5-1.1,1.1-1.1c0.6,0,1.1,0.5,1.1,1.1C42.1,65.3,41.6,65.8,40.9,65.8z M40.9,59.2
	c0.6,0,1.1,0.5,1.1,1.1c0,0.6-0.5,1.1-1.1,1.1c-0.6,0-1.1-0.5-1.1-1C39.8,59.7,40.3,59.2,40.9,59.2z M39.8,55.9c0-0.5,0.5-1,1-1
	c0.6,0,1,0.4,1,1s-0.4,1-1,1C40.3,56.9,39.8,56.4,39.8,55.9z M44,26.2c0,2.1,0,4.1,0,6.2c0,0.2,0,0.3-0.3,0.3c-0.8,0-1.5,0-2.3,0
	c-0.2,0-0.2,0-0.2-0.2c0-2.1,0-4.1,0-6.2c0-0.2-0.1-0.3-0.3-0.3c-0.5,0-1.1,0-1.6,0c-0.2,0-0.2,0-0.2-0.2c0-0.8,0-1.5,0-2.3
	c0-0.2,0.1-0.2,0.2-0.2c1.1,0,2.2,0,3.3,0c1.1,0,2.2,0,3.3,0c0.2,0,0.3,0,0.3,0.2c0,0.8,0,1.5,0,2.3c0,0.2,0,0.2-0.2,0.2
	c-0.6,0-1.1,0-1.7,0C44.1,26,44,26,44,26.2z M45.5,65.8c-0.6,0-1.2-0.5-1.2-1.2c0-0.6,0.5-1.2,1.2-1.2c0.6,0,1.2,0.5,1.2,1.2
	C46.6,65.2,46.1,65.7,45.5,65.8z M49.9,65.8c-0.7,0-1.2-0.5-1.2-1.2c0-0.7,0.6-1.2,1.2-1.2c0.7,0,1.2,0.6,1.2,1.2
	C51.2,65.2,50.6,65.8,49.9,65.8z M49.8,54.6c0.6,0,1.1,0.5,1.1,1.1c0,0.6-0.5,1.1-1.1,1.1c-0.6,0-1.1-0.5-1.1-1.1
	C48.7,55.1,49.2,54.6,49.8,54.6z M48.7,51.4c0-0.6,0.5-1,1-1.1c0.6,0,1.1,0.5,1.1,1c0,0.6-0.5,1.1-1.1,1.1
	C49.2,52.4,48.7,51.9,48.7,51.4z M49.9,59c0.6,0,1.2,0.5,1.1,1.2c0,0.6-0.5,1.2-1.2,1.2c-0.6,0-1.2-0.5-1.2-1.2
	C48.7,59.5,49.3,59,49.9,59z M51.3,26.3c0,2.1,0,4.1,0,6.2c0,0.2,0,0.2-0.2,0.2c-0.8,0-1.5,0-2.3,0c-0.2,0-0.3,0-0.3-0.3
	c0-2.1,0-4.1,0-6.2c0-0.1,0-0.2,0-0.3c-0.7,0-1.3,0-2,0c-0.1,0-0.1,0-0.1-0.1c0-0.8,0-1.7,0-2.5c0,0,0-0.1,0.1-0.1
	c1.4,0,2.8,0,4.2,0c0.9,0,1.8,0,2.6,0c0.1,0,0.2,0,0.2,0.2c0,0.8,0,1.6,0,2.4c0,0.1,0,0.2-0.2,0.2c-0.6,0-1.3,0-2,0
	C51.3,26.1,51.3,26.2,51.3,26.3z M54.4,65.8c-0.7,0-1.3-0.6-1.3-1.3c0-0.7,0.6-1.3,1.3-1.3c0.7,0,1.3,0.6,1.3,1.3
	C55.7,65.2,55.2,65.8,54.4,65.8z M58.9,65.8c-0.7,0-1.3-0.6-1.3-1.3c0-0.7,0.6-1.3,1.4-1.3c0.7,0,1.3,0.6,1.3,1.3
	C60.3,65.2,59.7,65.8,58.9,65.8z M58.8,50.1c0.6,0,1.2,0.5,1.2,1.2c0,0.6-0.5,1.2-1.2,1.2c-0.6,0-1.2-0.5-1.2-1.2
	C57.6,50.6,58.1,50.1,58.8,50.1z M57.6,46.9c0-0.6,0.5-1.1,1.1-1.1c0.6,0,1.1,0.5,1.1,1.1c0,0.6-0.5,1.1-1.1,1.1
	C58.1,48,57.6,47.5,57.6,46.9z M58.8,56.9c-0.7,0-1.2-0.6-1.2-1.2c0-0.7,0.6-1.2,1.2-1.2c0.7,0,1.2,0.6,1.2,1.2
	C60.1,56.3,59.5,56.9,58.8,56.9z M60.2,60c0,0.7-0.6,1.3-1.3,1.3c-0.7,0-1.3-0.6-1.3-1.3c0-0.7,0.6-1.3,1.3-1.3
	C59.6,58.7,60.2,59.3,60.2,60z M60.9,29.7c-1.2,0-2.4,0-3.6,0c-0.3,0-0.2-0.2-0.2-0.4c0-0.1,0-0.1,0-0.2c0-0.6,0-0.7,0.7-0.7
	c0.2,0,0.4,0,0.6,0c0.1,0,0.2,0,0.1-0.2c-0.2-0.6-0.9-0.8-1.4-0.4c-0.1,0.1-0.2,0.2-0.3,0.3c-0.4,0.5-0.4,1.5,0,2.1
	c0.3,0.5,0.9,0.6,1.4,0.2c0.1-0.1,0.2-0.1,0.3,0c0.4,0.5,0.8,1,1.2,1.5c0.1,0.1,0.1,0.2,0,0.2c-1.3,0.9-2.6,1-3.9,0.3
	c-1.3-0.7-1.9-1.9-1.8-3.4c0.1-1.6,1.3-3,2.9-3.3c1.7-0.3,3.3,0.5,4,2c0.2,0.6,0.3,1.1,0.3,1.7C61.1,29.6,61,29.7,60.9,29.7z
	 M68.9,29.6c-0.1,1.7-1.6,3.1-3.3,3.2c-1.9,0.1-3.5-1.2-3.7-3c-0.3-1.8,0.6-3.4,2.3-4c1.6-0.6,3.4,0,4.3,1.5c0.2,0.3,0.3,0.7,0.4,1
	c0,0.2,0,0.2-0.1,0.2c-0.4,0-0.8,0-1.2,0v0c-0.2,0-0.5,0-0.7,0c-0.3,0-0.6,0-0.9-0.2c-0.3-0.3-0.9-0.2-1.3,0.1
	c-0.3,0.3-0.4,0.9-0.2,1.3c0.2,0.4,0.8,0.6,1.2,0.5c0.3-0.1,0.5-0.3,0.6-0.6c0-0.1,0.1-0.1,0.2-0.2c0.7,0,1.5,0,2.2-0.1
	C68.9,29.4,68.9,29.5,68.9,29.6z"/>
</svg>
